<?xml version="1.0" encoding="utf-8"?>
<!-- Generator: Adobe Illustrator 16.0.0, SVG Export Plug-In . SVG Version: 6.00 Build 0)  -->
<!DOCTYPE svg PUBLIC "-//W3C//DTD SVG 1.1//EN" "http://www.w3.org/Graphics/SVG/1.1/DTD/svg11.dtd">
<svg version="1.1" id="Layer_1" xmlns="http://www.w3.org/2000/svg" xmlns:xlink="http://www.w3.org/1999/xlink" x="0px" y="0px"
	 width="148px" height="26px" viewBox="0 0 148 26" enable-background="new 0 0 148 26" xml:space="preserve">
<path id="Path" fill="#0033C4" d="M21.577,26H5.423C2.989,26,1,23.971,1,21.491V4.513C1,2.028,2.989,0,5.423,0h16.154
	C24.009,0,26,2.028,26,4.513v16.979C26,23.971,24.009,26,21.577,26z"/>
<title>Plusadmin_logo Copy</title>
<desc>Created with Sketch.</desc>
<path fill="none" stroke="#3D499F" d="M36.155,3.524c0.656,0,1.517,0.162,2.581,0.487C38.863,4.05,38.964,4.07,39.04,4.07
	c0.064,0,0.255-0.058,0.573-0.172c0.103-0.039,0.211-0.058,0.326-0.058c0.427,0,0.877,0.338,1.353,1.012
	c0.474,0.676,0.712,1.32,0.712,1.931c0,0.358-0.107,0.658-0.321,0.903s-0.474,0.367-0.778,0.367c-0.255,0-0.462-0.05-0.621-0.152
	c-0.159-0.103-0.51-0.404-1.051-0.907c-0.765-0.713-1.517-1.069-2.255-1.069c-0.358,0-0.642,0.086-0.855,0.257
	c-0.213,0.171-0.321,0.398-0.321,0.677c0,0.554,0.488,0.972,1.463,1.252c1.319,0.389,2.163,0.672,2.532,0.85
	c1.625,0.79,2.437,1.954,2.437,3.488c0,1.355-0.554,2.465-1.663,3.326c-1.134,0.879-2.615,1.316-4.443,1.316
	c-0.816,0-1.676-0.098-2.58-0.294c-0.904-0.188-1.558-0.419-1.959-0.683c-0.306-0.202-0.582-0.646-0.826-1.331
	c-0.246-0.687-0.368-1.353-0.368-2.003c0-0.312,0.064-0.547,0.191-0.706c0.159-0.204,0.359-0.307,0.602-0.307
	c0.242,0,0.474,0.125,0.697,0.373c0.134,0.14,0.449,0.59,0.946,1.348c0.237,0.354,0.609,0.651,1.124,0.89
	c0.512,0.234,1.044,0.354,1.59,0.354c0.472,0,0.854-0.086,1.147-0.264c0.293-0.176,0.439-0.396,0.439-0.673
	c0-0.256-0.114-0.476-0.343-0.66c-0.229-0.184-0.602-0.357-1.118-0.517c-0.912-0.286-1.606-0.548-2.083-0.788
	c-0.477-0.24-0.923-0.54-1.337-0.902c-1.006-0.893-1.51-1.904-1.51-3.04c0-0.56,0.131-1.106,0.392-1.639
	c0.261-0.532,0.631-0.992,1.108-1.38C33.307,3.974,34.613,3.524,36.155,3.524z"/>
<path fill="none" stroke="#3D499F" d="M48.434,7.318c1.133,0,2.134,0.284,3.001,0.85c0.821,0.542,1.232,1.214,1.232,2.017
	c0,0.555-0.19,1.004-0.572,1.348c-0.357,0.325-0.787,0.487-1.29,0.487c-0.529,0-0.927-0.19-1.194-0.572
	c-0.083-0.122-0.204-0.431-0.363-0.928c-0.172-0.534-0.5-0.803-0.984-0.803c-0.35,0-0.644,0.154-0.883,0.459
	c-0.239,0.305-0.359,0.683-0.359,1.128c0,0.764,0.274,1.444,0.823,2.036c0.445,0.477,1.005,0.715,1.681,0.715
	c0.319,0,0.586-0.023,0.803-0.082c0.216-0.055,0.5-0.162,0.85-0.328c0.088-0.045,0.187-0.064,0.297-0.064
	c0.216,0,0.407,0.104,0.572,0.306c0.166,0.204,0.248,0.443,0.248,0.72c0,0.285-0.117,0.586-0.353,0.898
	c-0.235,0.313-0.545,0.592-0.927,0.828c-0.828,0.511-1.806,0.766-2.934,0.766c-1.312,0-2.43-0.385-3.353-1.146
	c-1.186-0.969-1.778-2.201-1.778-3.699c0-1.439,0.551-2.63,1.653-3.574C45.653,7.771,46.93,7.318,48.434,7.318z"/>
<path fill="none" stroke="#3D499F" d="M58.563,4.261l-0.125,4.003c-0.013,0.479,0.135,0.717,0.439,0.717
	c0.154,0,0.303-0.105,0.45-0.315c0.619-0.898,1.443-1.348,2.476-1.348c1.012,0,1.818,0.31,2.416,0.928
	c0.267,0.274,0.458,0.598,0.569,0.975c0.111,0.376,0.172,0.915,0.187,1.615l0.085,3.45c0.006,0.299,0.046,0.521,0.119,0.657
	c0.073,0.142,0.244,0.313,0.511,0.524c0.185,0.146,0.278,0.321,0.278,0.525c0,0.688-1.039,1.028-3.116,1.028
	c-1.847,0-2.771-0.318-2.771-0.965c0-0.106,0.016-0.188,0.048-0.248c0.032-0.057,0.144-0.209,0.335-0.457
	c0.267-0.351,0.401-1.228,0.401-2.626c0-0.847-0.08-1.463-0.238-1.853c-0.211-0.528-0.587-0.793-1.128-0.793
	c-0.389,0-0.675,0.14-0.86,0.42c-0.133,0.204-0.2,0.586-0.2,1.146v1.845c0.045,0.814,0.082,1.275,0.113,1.384
	c0.033,0.108,0.18,0.312,0.441,0.604c0.12,0.135,0.182,0.289,0.182,0.471c0,0.72-0.937,1.078-2.81,1.078
	c-2.19,0-3.288-0.373-3.288-1.118c0-0.173,0.036-0.306,0.106-0.396c0.07-0.096,0.242-0.234,0.516-0.427
	c0.242-0.172,0.408-0.637,0.501-1.392c0.093-0.755,0.139-2.004,0.139-3.75c0-1.371-0.038-2.32-0.115-2.849
	c-0.025-0.197-0.071-0.343-0.138-0.435C54.02,6.57,53.893,6.475,53.708,6.38c-0.395-0.204-0.593-0.44-0.593-0.707
	c0-0.32,0.15-0.577,0.449-0.775c0.3-0.197,0.874-0.41,1.721-0.64c1.146-0.318,2.06-0.478,2.742-0.478
	C58.397,3.782,58.576,3.941,58.563,4.261z"/>
<path fill="none" stroke="#3D499F" d="M72.448,7.309c1.166,0,2.188,0.302,3.067,0.907c0.631,0.434,1.137,0.998,1.519,1.692
	c0.396,0.727,0.593,1.485,0.593,2.274c0,1.384-0.634,2.56-1.902,3.525c-1.209,0.925-2.596,1.387-4.156,1.387
	c-1.522,0-2.755-0.432-3.698-1.299c-0.917-0.841-1.375-1.936-1.375-3.288c0-1.502,0.559-2.732,1.681-3.688
	C69.349,7.812,70.771,7.309,72.448,7.309z M71.683,9.516c-0.281,0-0.506,0.104-0.675,0.311c-0.168,0.207-0.252,0.482-0.252,0.827
	c0,0.381,0.071,0.903,0.215,1.563c0.143,0.659,0.314,1.244,0.511,1.753c0.197,0.521,0.519,0.783,0.966,0.783
	c0.566,0,0.85-0.358,0.85-1.08c0-0.535-0.072-1.142-0.215-1.825c-0.144-0.681-0.317-1.235-0.521-1.663
	C72.352,9.751,72.059,9.529,71.683,9.516z"/>
<path fill="none" stroke="#3D499F" d="M84.229,7.309c1.166,0,2.188,0.302,3.067,0.907c0.631,0.434,1.138,0.998,1.521,1.692
	c0.396,0.727,0.595,1.485,0.595,2.274c0,1.384-0.636,2.56-1.902,3.525c-1.21,0.925-2.595,1.387-4.153,1.387
	c-1.522,0-2.756-0.432-3.699-1.299c-0.914-0.841-1.375-1.936-1.375-3.288c0-1.502,0.561-2.732,1.682-3.688
	C81.13,7.812,82.555,7.309,84.229,7.309z M83.465,9.516c-0.279,0-0.505,0.104-0.673,0.311c-0.169,0.207-0.253,0.482-0.253,0.827
	c0,0.382,0.07,0.903,0.215,1.562c0.145,0.66,0.313,1.244,0.512,1.753c0.195,0.522,0.521,0.784,0.965,0.784
	c0.565,0,0.853-0.358,0.853-1.08c0-0.536-0.072-1.143-0.215-1.825c-0.146-0.682-0.316-1.236-0.521-1.663
	C84.133,9.751,83.841,9.529,83.465,9.516z"/>
<path fill="none" stroke="#3D499F" d="M95.553,9.258v3.068c0,1.355,0.021,2.146,0.063,2.367c0.041,0.227,0.196,0.396,0.471,0.517
	c0.236,0.103,0.396,0.2,0.476,0.288c0.08,0.09,0.119,0.216,0.119,0.38c0,0.214-0.076,0.402-0.224,0.575
	c-0.151,0.172-0.349,0.292-0.599,0.361c-0.457,0.142-1.233,0.211-2.322,0.211c-1.229,0-2.094-0.092-2.592-0.275
	c-0.229-0.085-0.414-0.215-0.563-0.389c-0.146-0.176-0.219-0.358-0.219-0.551c0-0.151,0.038-0.271,0.118-0.354
	c0.078-0.081,0.253-0.185,0.521-0.295c0.247-0.11,0.402-0.406,0.46-0.892c0.102-0.829,0.152-2.005,0.152-3.537
	c0-1.554-0.048-2.555-0.137-3.001c-0.09-0.446-0.313-0.778-0.668-0.995c-0.271-0.153-0.45-0.297-0.551-0.435
	c-0.101-0.136-0.147-0.304-0.147-0.5c0-0.313,0.147-0.585,0.448-0.817c0.303-0.232,0.776-0.448,1.436-0.646
	c0.439-0.133,1.01-0.261,1.71-0.382c0.702-0.121,1.212-0.182,1.53-0.182c0.503,0,0.754,0.312,0.754,0.937
	c0,0.205-0.032,0.672-0.096,1.404C95.613,7.264,95.566,8.308,95.553,9.258z"/>
<path fill="none" stroke="#3D499F" d="M106.971,10.309l-2.474,4.814c-0.384,0.747-0.707,1.266-0.974,1.557
	c-0.271,0.288-0.557,0.436-0.86,0.436c-0.3,0-0.542-0.108-0.728-0.324c-0.391-0.436-0.73-0.923-1.022-1.475l-2.715-5.147
	c-0.146-0.28-0.287-0.484-0.425-0.606c-0.137-0.125-0.324-0.219-0.567-0.283c-0.483-0.14-0.728-0.401-0.728-0.784
	c0-0.389,0.299-0.671,0.896-0.85c0.603-0.179,1.547-0.268,2.841-0.268c1.083,0,1.878,0.079,2.393,0.233
	c0.516,0.158,0.771,0.397,0.771,0.723c0,0.229-0.12,0.449-0.363,0.659c-0.152,0.14-0.25,0.246-0.297,0.315
	c-0.043,0.07-0.063,0.16-0.063,0.268c0,0.217,0.142,0.577,0.42,1.08c0.279,0.49,0.542,0.735,0.781,0.735
	c0.16,0,0.291-0.06,0.394-0.18c0.104-0.121,0.287-0.433,0.556-0.937c0.196-0.369,0.299-0.649,0.299-0.84
	c0-0.153-0.104-0.335-0.309-0.545c-0.218-0.229-0.326-0.443-0.326-0.64c0-0.306,0.204-0.526,0.608-0.659
	c0.401-0.134,1.065-0.2,1.989-0.2c1.302,0,1.949,0.28,1.949,0.84c0,0.325-0.232,0.56-0.695,0.707
	c-0.363,0.114-0.612,0.239-0.742,0.373C107.447,9.439,107.246,9.774,106.971,10.309z"/>
<path fill="none" stroke="#3D499F" d="M114.568,7.978v5.552c0,0.438,0.039,0.762,0.119,0.966c0.078,0.204,0.237,0.391,0.481,0.563
	c0.197,0.143,0.328,0.258,0.396,0.357c0.064,0.1,0.099,0.225,0.099,0.377c0,0.822-1.04,1.232-3.124,1.232
	c-1.121,0-2.012-0.088-2.664-0.271c-0.227-0.063-0.402-0.176-0.54-0.334c-0.14-0.157-0.207-0.341-0.207-0.546
	c0-0.171,0.037-0.309,0.104-0.396c0.069-0.101,0.248-0.25,0.539-0.461c0.193-0.146,0.334-0.388,0.42-0.718
	c0.08-0.332,0.121-0.826,0.121-1.482c0-0.211-0.016-0.603-0.041-1.18c-0.029-0.577-0.051-0.912-0.063-1.009
	c-0.04-0.261-0.217-0.461-0.536-0.602c-0.396-0.172-0.594-0.427-0.594-0.764c0-0.402,0.259-0.701,0.773-0.898
	c0.715-0.273,1.479-0.507,2.293-0.698s1.446-0.288,1.894-0.288C114.395,7.385,114.568,7.583,114.568,7.978z M112.678,3.792
	c0.555,0,0.992,0.104,1.318,0.31c0.324,0.207,0.486,0.486,0.486,0.836c0,0.49-0.246,0.879-0.734,1.167
	c-0.777,0.452-1.719,0.678-2.818,0.678c-0.466,0-0.834-0.089-1.109-0.268c-0.367-0.229-0.553-0.547-0.553-0.955
	c0-0.548,0.393-0.978,1.174-1.29C111.238,3.952,111.982,3.792,112.678,3.792z"/>
<path fill="none" stroke="#3D499F" d="M120.055,7.318c0.316,0,0.838,0.07,1.557,0.21c0.146,0.026,0.27,0.039,0.363,0.039
	c0.106,0,0.317-0.057,0.633-0.172c0.146-0.057,0.271-0.085,0.371-0.085c0.293,0,0.59,0.188,0.891,0.563
	c0.24,0.3,0.438,0.629,0.592,0.985c0.154,0.357,0.229,0.666,0.229,0.927c0,0.256-0.088,0.467-0.269,0.637
	c-0.177,0.168-0.399,0.251-0.669,0.251c-0.223,0-0.422-0.053-0.6-0.162c-0.176-0.108-0.453-0.347-0.844-0.717
	c-0.408-0.395-0.746-0.592-1.014-0.592c-0.18,0-0.334,0.065-0.465,0.195c-0.13,0.131-0.196,0.286-0.196,0.463
	c0,0.313,0.302,0.604,0.898,0.879c1.075,0.484,1.899,1.012,2.475,1.586c0.482,0.483,0.728,1.077,0.728,1.776
	c0,0.888-0.387,1.623-1.164,2.217c-0.67,0.517-1.488,0.772-2.456,0.772c-0.247,0-0.699-0.043-1.357-0.125
	c-0.616-0.069-0.965-0.104-1.039-0.104c-0.085,0-0.181,0.013-0.284,0.031c-0.188,0.021-0.319,0.039-0.404,0.039
	c-0.301,0-0.533-0.078-0.704-0.229c-0.265-0.238-0.507-0.608-0.728-1.115c-0.226-0.506-0.336-0.94-0.336-1.305
	c0-0.587,0.229-0.877,0.688-0.877c0.178,0,0.343,0.057,0.489,0.176c0.148,0.117,0.465,0.433,0.941,0.94
	c0.262,0.277,0.479,0.476,0.65,0.576c0.171,0.105,0.355,0.156,0.553,0.156c0.212,0,0.38-0.055,0.508-0.168
	c0.124-0.107,0.189-0.259,0.189-0.441c0-0.285-0.244-0.547-0.736-0.783c-1.025-0.503-1.766-1.021-2.222-1.556
	c-0.455-0.536-0.681-1.153-0.681-1.854c0-0.758,0.229-1.41,0.693-1.959C118.003,7.71,118.906,7.318,120.055,7.318z"/>
<path fill="none" stroke="#3D499F" d="M134.387,12.554h-4.488c-0.197,0-0.299,0.086-0.299,0.259c0,0.413,0.228,0.803,0.676,1.167
	c0.447,0.369,0.933,0.551,1.447,0.551c0.305,0,0.646-0.059,1.016-0.178c0.375-0.117,0.684-0.264,0.925-0.437
	c0.216-0.151,0.39-0.229,0.521-0.229c0.164,0,0.326,0.104,0.484,0.307c0.158,0.205,0.236,0.414,0.236,0.632
	c0,0.457-0.285,0.897-0.858,1.327c-1.013,0.76-2.185,1.138-3.509,1.138c-1.336,0-2.456-0.39-3.361-1.164
	c-0.438-0.384-0.804-0.845-1.091-1.389c-0.376-0.72-0.563-1.477-0.563-2.273c0-1.069,0.322-2.032,0.977-2.886
	c0.561-0.74,1.271-1.29,2.139-1.653c0.65-0.274,1.354-0.411,2.111-0.411c1.209,0,2.238,0.344,3.088,1.032
	c0.425,0.344,0.77,0.752,1.03,1.224c0.301,0.535,0.448,1.057,0.448,1.566c0,0.415-0.084,0.754-0.262,1.019
	C134.884,12.423,134.661,12.554,134.387,12.554z M130.145,10.768h0.965c0.408,0,0.613-0.188,0.613-0.564
	c0-0.344-0.101-0.624-0.298-0.841c-0.198-0.217-0.456-0.325-0.772-0.325c-0.356,0-0.639,0.14-0.842,0.42
	c-0.188,0.26-0.287,0.526-0.287,0.792c0,0.191,0.045,0.326,0.143,0.402C129.753,10.729,129.915,10.768,130.145,10.768z"/>
<path fill="none" stroke="#3D499F" d="M140.398,7.375c0.338,0,0.541,0.048,0.611,0.143c0.074,0.096,0.143,0.401,0.196,0.918
	c0.033,0.28,0.132,0.42,0.299,0.42c0.126,0,0.248-0.092,0.362-0.278c0.507-0.796,1.175-1.194,1.996-1.194
	c0.576,0,1.056,0.188,1.424,0.564c0.179,0.185,0.322,0.422,0.438,0.712s0.174,0.567,0.174,0.835c0,0.299-0.07,0.606-0.211,0.922
	c-0.141,0.315-0.319,0.575-0.543,0.779c-0.41,0.388-0.91,0.583-1.502,0.583c-0.326,0-0.598-0.058-0.815-0.173
	c-0.222-0.114-0.511-0.346-0.864-0.698c-0.135-0.134-0.259-0.201-0.373-0.201c-0.18,0-0.296,0.101-0.35,0.301
	c-0.057,0.2-0.081,0.623-0.081,1.266c0,0.962,0.032,1.619,0.104,1.969c0.043,0.188,0.106,0.321,0.188,0.396
	c0.08,0.073,0.249,0.149,0.509,0.227c0.573,0.174,0.86,0.473,0.86,0.896c0,0.263-0.094,0.49-0.276,0.685
	c-0.188,0.193-0.431,0.322-0.733,0.39c-0.609,0.126-1.512,0.188-2.695,0.188c-1.124,0-1.983-0.1-2.568-0.295
	c-0.521-0.179-0.781-0.486-0.781-0.929c0-0.331,0.188-0.628,0.571-0.89c0.185-0.119,0.313-0.229,0.381-0.328
	c0.07-0.102,0.119-0.232,0.144-0.406c0.104-0.58,0.152-1.653,0.152-3.221c0-0.286-0.029-0.492-0.095-0.616
	c-0.063-0.125-0.19-0.225-0.382-0.301c-0.453-0.178-0.678-0.437-0.678-0.774c0-0.306,0.15-0.57,0.466-0.789
	c0.315-0.219,0.838-0.438,1.569-0.655C138.876,7.531,139.709,7.382,140.398,7.375z"/>
<path fill="#EDEFF7" d="M13.34,6.216c0.656,0,1.517,0.162,2.582,0.486c0.127,0.039,0.228,0.059,0.304,0.059
	c0.063,0,0.255-0.057,0.573-0.172c0.103-0.039,0.211-0.058,0.326-0.058c0.427,0,0.877,0.338,1.353,1.013
	c0.474,0.676,0.712,1.319,0.712,1.931c0,0.358-0.107,0.657-0.32,0.903c-0.215,0.244-0.475,0.366-0.779,0.366
	c-0.254,0-0.461-0.05-0.62-0.151c-0.159-0.104-0.511-0.404-1.052-0.907c-0.765-0.713-1.517-1.069-2.254-1.069
	c-0.358,0-0.642,0.086-0.855,0.258c-0.213,0.17-0.321,0.397-0.321,0.676c0,0.555,0.488,0.973,1.463,1.252
	c1.319,0.39,2.163,0.673,2.532,0.851c1.625,0.79,2.438,1.954,2.438,3.489c0,1.354-0.555,2.465-1.664,3.325
	c-1.133,0.88-2.614,1.318-4.442,1.318c-0.816,0-1.676-0.099-2.58-0.294c-0.904-0.19-1.558-0.419-1.959-0.684
	c-0.306-0.201-0.582-0.646-0.826-1.33c-0.246-0.687-0.368-1.354-0.368-2.004c0-0.312,0.064-0.548,0.191-0.705
	c0.159-0.205,0.359-0.31,0.602-0.31c0.242,0,0.474,0.125,0.697,0.373c0.134,0.142,0.449,0.59,0.946,1.351
	c0.237,0.354,0.609,0.651,1.124,0.89c0.512,0.233,1.044,0.352,1.59,0.352c0.472,0,0.854-0.086,1.147-0.262
	c0.293-0.177,0.439-0.397,0.439-0.673c0-0.256-0.114-0.477-0.343-0.659c-0.229-0.185-0.602-0.356-1.118-0.519
	c-0.912-0.285-1.606-0.547-2.083-0.787s-0.923-0.541-1.337-0.901c-1.006-0.894-1.51-1.905-1.51-3.04c0-0.561,0.131-1.106,0.392-1.64
	c0.261-0.532,0.631-0.992,1.108-1.38C10.492,6.665,11.798,6.216,13.34,6.216z"/>
<text transform="matrix(1 0 0 1 79.3154 23.5879)" font-family="'BradleyHandITC'" font-size="7.2799">School Accounting</text>
</svg>
